<svg width="18" height="18" viewBox="0 0 18 18" fill="none" xmlns="http://www.w3.org/2000/svg">
<path d="M14.3257 17H3.67433C2.20246 17 1 15.7975 1 14.3257V3.67433C1 2.20246 2.20246 1 3.67433 1H14.3257C15.7975 1 17 2.20246 17 3.67433V14.3257C17 15.8041 15.8041 17 14.3257 17Z" stroke="white"/>
<path d="M6.09895 11.9076C6.87431 12.6829 7.90593 13.11 9.00326 13.11C10.1006 13.11 11.1256 12.6829 11.9076 11.9076C12.6829 11.1322 13.11 10.1006 13.11 9.00326C13.11 7.90593 12.6829 6.87431 11.9076 6.09895C11.1322 5.32359 10.1006 4.89648 9.00326 4.89648C7.90593 4.89648 6.87431 5.32359 6.09895 6.09895C5.32359 6.87431 4.89648 7.90593 4.89648 9.00326C4.89648 10.1006 5.32359 11.1322 6.09895 11.9076Z" stroke="white"/>
<path d="M14.2885 4.57704C14.724 4.57704 15.077 4.22401 15.077 3.78852C15.077 3.35303 14.724 3 14.2885 3C13.853 3 13.5 3.35303 13.5 3.78852C13.5 4.22401 13.853 4.57704 14.2885 4.57704Z" fill="white"/>
</svg>
